<?xml version="1.0" encoding="utf-8" standalone="no"?>
<!DOCTYPE svg PUBLIC "-//W3C//DTD SVG 1.1//EN" "http://www.w3.org/Graphics/SVG/1.1/DTD/svg11.dtd">
<svg xmlns="http://www.w3.org/2000/svg" xmlns:xl="http://www.w3.org/1999/xlink" version="1.1" viewBox="252 328 72 46" width="6pc" height="46pt" xmlns:dc="http://purl.org/dc/elements/1.1/"><metadata> Produced by OmniGraffle 6.0 <dc:date>2013-10-16 03:26Z</dc:date></metadata><defs/><g stroke="none" stroke-opacity="1" stroke-dasharray="none" fill="none" fill-opacity="1"><title>Canvas 1</title><g><title>Layer 1</title><path d="M 311 370.975 L 311 371 L 266 371 L 266 370.975 C 259.883 370.711 255 365.683 255 359.5 C 255 353.995 258.872 349.399 264.039 348.271 C 264.013 348.018 264 347.76 264 347.5 C 264 343.358 267.358 340 271.5 340 C 274.017 340 276.239 341.245 277.6 343.147 C 279.512 336.151 285.897 331 293.5 331 C 302.613 331 310 338.388 310 347.5 C 310 348.353 309.915 349.183 309.79 350 L 311 350 L 311 350.026 C 316.565 350.288 321 354.871 321 360.5 C 321 366.13 316.565 370.712 311 370.975 M 311.97 348.094 C 311.977 347.895 312 347.701 312 347.5 C 312 337.284 303.717 329 293.5 329 C 286.11 329 279.751 333.344 276.787 339.608 C 275.275 338.593 273.457 338 271.5 338 C 266.5 338 262.41 341.867 262.037 346.772 C 256.778 348.617 253 353.611 253 359.5 C 253 366.788 258.778 372.71 266 372.975 L 266 373 L 311 373 L 311 372.975 C 317.67 372.71 323 367.235 323 360.5 C 323 354.095 318.18 348.823 311.97 348.094" fill="#747474"/></g></g></svg>
