<?xml version="1.0" encoding="utf-8" standalone="no"?>
<!DOCTYPE svg PUBLIC "-//W3C//DTD SVG 1.1//EN" "http://www.w3.org/Graphics/SVG/1.1/DTD/svg11.dtd">
<svg xmlns="http://www.w3.org/2000/svg" xmlns:xl="http://www.w3.org/1999/xlink" version="1.1" viewBox="252 328 72 46" width="6pc" height="46pt" xmlns:dc="http://purl.org/dc/elements/1.1/"><metadata> Produced by OmniGraffle 6.0 <dc:date>2013-10-16 03:27Z</dc:date></metadata><defs/><g stroke="none" stroke-opacity="1" stroke-dasharray="none" fill="none" fill-opacity="1"><title>Canvas 1</title><g><title>Layer 1</title><path d="M 323 360.5 C 323 354.095 318.18 348.822 311.97 348.094 C 311.977 347.895 312 347.7 312 347.5 C 312 337.283 303.717 329 293.5 329 C 286.11 329 279.751 333.344 276.787 339.607 C 275.275 338.593 273.457 338 271.5 338 C 266.5 338 262.41 341.866 262.037 346.771 C 256.778 348.616 253 353.61 253 359.5 C 253 366.787 258.778 372.71 266 372.975 L 266 373 L 311 373 L 311 372.975 C 317.67 372.71 323 367.234 323 360.5 Z" fill="#319CDF"/></g></g></svg>
