<?xml version="1.0" encoding="utf-8" standalone="no"?>
<!DOCTYPE svg PUBLIC "-//W3C//DTD SVG 1.1//EN" "http://www.w3.org/Graphics/SVG/1.1/DTD/svg11.dtd">
<svg xmlns="http://www.w3.org/2000/svg" xmlns:xl="http://www.w3.org/1999/xlink" version="1.1" viewBox="266 333 44 36" width="44pt" height="3pc" xmlns:dc="http://purl.org/dc/elements/1.1/"><metadata> Produced by OmniGraffle 6.0 <dc:date>2013-10-16 03:36Z</dc:date></metadata><defs/><g stroke="none" stroke-opacity="1" stroke-dasharray="none" fill="none" fill-opacity="1"><title>Canvas 1</title><g><title>Layer 1</title><path d="M 307 342.184 C 306.686 342.073 306.353 342 306 342 L 270 342 C 269.647 342 269.314 342.073 269 342.184 L 269 337 C 269 336.449 269.448 336 270 336 L 279 336 C 282 336 281 339 284 339 L 306 339 C 306.553 339 307 339.449 307 340 Z M 307 355.817 L 307 361 L 307 365 C 307 365.553 306.553 366 306 366 L 270 366 C 269.448 366 269 365.553 269 365 L 269 361 L 269 355.817 L 269 345 C 269 344.448 269.448 344 270 344 L 306 344 C 306.553 344 307 344.448 307 345 Z M 306 337 L 285 337 C 283 337 282 334 280 334 L 270 334 C 268.343 334 267 335.344 267 337 L 267 345 L 267 353 L 267 365 C 267 366.658 268.343 368 270 368 L 306 368 C 307.657 368 309 366.658 309 365 L 309 353 L 309 345 L 309 340 C 309 338.344 307.657 337 306 337" fill="#747474"/></g></g></svg>
