<?xml version="1.0" encoding="UTF-8" standalone="no"?>
<!-- Created with Inkscape (http://www.inkscape.org/) -->

<svg
   xmlns:dc="http://purl.org/dc/elements/1.1/"
   xmlns:cc="http://creativecommons.org/ns#"
   xmlns:rdf="http://www.w3.org/1999/02/22-rdf-syntax-ns#"
   xmlns:svg="http://www.w3.org/2000/svg"
   xmlns="http://www.w3.org/2000/svg"
   xmlns:sodipodi="http://sodipodi.sourceforge.net/DTD/sodipodi-0.dtd"
   xmlns:inkscape="http://www.inkscape.org/namespaces/inkscape"
   width="43.3325"
   height="37.794998"
   id="svg3599"
   version="1.1"
   inkscape:version="0.48.2 r9819"
   sodipodi:docname="inbox.svg">
  <defs
     id="defs3601" />
  <sodipodi:namedview
     id="base"
     pagecolor="#ffffff"
     bordercolor="#666666"
     borderopacity="1.0"
     inkscape:pageopacity="0.0"
     inkscape:pageshadow="2"
     inkscape:zoom="1.28"
     inkscape:cx="147.20901"
     inkscape:cy="29.884699"
     inkscape:document-units="px"
     inkscape:current-layer="layer1"
     showgrid="false"
     inkscape:window-width="970"
     inkscape:window-height="730"
     inkscape:window-x="382"
     inkscape:window-y="43"
     inkscape:window-maximized="0"
     fit-margin-top="1"
     fit-margin-left="1"
     fit-margin-right="1"
     fit-margin-bottom="1" />
  <metadata
     id="metadata3604">
    <rdf:RDF>
      <cc:Work
         rdf:about="">
        <dc:format>image/svg+xml</dc:format>
        <dc:type
           rdf:resource="http://purl.org/dc/dcmitype/StillImage" />
        <dc:title></dc:title>
      </cc:Work>
    </rdf:RDF>
  </metadata>
  <g
     inkscape:label="Layer 1"
     inkscape:groupmode="layer"
     id="layer1"
     transform="translate(98.22875,-1082.6834)">
    <path
       d="m -95.06375,1118.2284 37.0025,0 -18.50125,-32.045 -18.50125,32.045 z m 39.1675,1.25 -41.3325,0 20.66625,-35.795 20.66625,35.795"
       inkscape:connector-curvature="0"
       id="path502"
       style="fill:#C7284D;fill-opacity:1;fill-rule:nonzero;stroke:none" />
    <path
       d="m -75.1775,1099.9159 -0.42875,8.9575 c -0.0213,0.4938 -0.315,0.8538 -0.945,0.8538 -0.675,0 -0.9675,-0.36 -0.99,-0.8538 l -0.405,-8.9575 c -0.045,-0.8787 0.495,-1.2612 1.395,-1.2612 0.8775,0 1.4175,0.3825 1.37375,1.2612 z m -2.85875,12.7825 c 0,-1.0125 0.54,-1.5075 1.485,-1.5075 0.945,0 1.4625,0.495 1.4625,1.5075 0,0.99 -0.5175,1.4625 -1.4625,1.4625 -0.945,0 -1.485,-0.4725 -1.485,-1.4625"
       inkscape:connector-curvature="0"
       id="path504"
       style="fill:#C7284D;fill-opacity:1;fill-rule:nonzero;stroke:none" />
  </g>
</svg>
