<?xml version="1.0" encoding="UTF-8" standalone="no"?>
<!-- Created with Inkscape (http://www.inkscape.org/) -->

<svg
   xmlns:dc="http://purl.org/dc/elements/1.1/"
   xmlns:cc="http://creativecommons.org/ns#"
   xmlns:rdf="http://www.w3.org/1999/02/22-rdf-syntax-ns#"
   xmlns:svg="http://www.w3.org/2000/svg"
   xmlns="http://www.w3.org/2000/svg"
   xmlns:sodipodi="http://sodipodi.sourceforge.net/DTD/sodipodi-0.dtd"
   xmlns:inkscape="http://www.inkscape.org/namespaces/inkscape"
   width="33.745548"
   height="42.6763"
   id="svg3599"
   version="1.1"
   inkscape:version="0.48.2 r9819"
   sodipodi:docname="more.svg">
  <defs
     id="defs3601" />
  <sodipodi:namedview
     id="base"
     pagecolor="#ffffff"
     bordercolor="#666666"
     borderopacity="1.0"
     inkscape:pageopacity="0.0"
     inkscape:pageshadow="2"
     inkscape:zoom="1.28"
     inkscape:cx="125.29068"
     inkscape:cy="129.14539"
     inkscape:document-units="px"
     inkscape:current-layer="layer1"
     showgrid="false"
     inkscape:window-width="970"
     inkscape:window-height="730"
     inkscape:window-x="382"
     inkscape:window-y="43"
     inkscape:window-maximized="0"
     fit-margin-top="1"
     fit-margin-left="1"
     fit-margin-right="1"
     fit-margin-bottom="1" />
  <metadata
     id="metadata3604">
    <rdf:RDF>
      <cc:Work
         rdf:about="">
        <dc:format>image/svg+xml</dc:format>
        <dc:type
           rdf:resource="http://purl.org/dc/dcmitype/StillImage" />
        <dc:title></dc:title>
      </cc:Work>
    </rdf:RDF>
  </metadata>
  <g
     inkscape:label="Layer 1"
     inkscape:groupmode="layer"
     id="layer1"
     transform="translate(41.091525,-1081.8053)">
    <path
       d="m -33.951525,1114.0403 c -1.88875,0 -4.89,0.4413 -4.89,3.385 0,2.3513 0.3675,3.17 1.785,3.99 0.88125,0.3875 2.0325,0.8163 3.4425,0.8163 2.67125,0 4.92125,-1.445 5.1225,-3.29 0.115,-0.5 0.16625,-0.9838 0.16625,-1.5163 l 0,-23.7762 17.5675,-4.2675 0.002,0.7937 c 10e-4,0.6313 0.0412,15.505 -0.03,16.16 -0.075,0.6788 -0.535,1.8875 -1.7775,2.1263 -0.4725,0.09 -1.88375,0.1025 -2.6825,0.1025 l 0,0 c -1.86375,0 -4.8675,0.44 -4.8675,3.385 0,2.35 0.3675,3.1712 1.78625,3.99 0.8825,0.3875 2.035,0.8162 3.4425,0.8162 2.67125,0 4.9199999,-1.445 5.1224999,-3.29 0.11375,-0.5012 0.165,-0.985 0.165,-1.5162 l 0,-27.5538 -19.8999999,4.835 0.009,7.9975 c 0.0275,9.2638 0.0175,14.1713 -0.0263,14.5838 -0.0762,0.68 -0.535,1.8887 -1.77875,2.1262 -0.46625,0.089 -1.865,0.1025 -2.65875,0.1025 l 0,0 z m 0.3375,9.4413 c -1.645,0 -2.95,-0.4825 -4.01,-0.955 -2.095,-1.205 -2.4675,-2.66 -2.4675,-5.1013 0,-2.9037 2.23625,-4.5962 6.05,-4.635 1.2925,0 2.2625,-0.031 2.5125,-0.08 0.65125,-0.125 0.76875,-1 0.77375,-1.0375 0.015,-0.18 0.0525,-1.9062 0.02,-13.7237 l -0.002,0 -0.025,-8.37 0.0163,0 0,-1.33 22.3999999,-5.4438 0,29.1438 c 0,0.6287 -0.0613,1.21 -0.18625,1.7287 -0.26,2.435 -2.9974999,4.3275 -6.3512499,4.3275 -1.6425,0 -2.94875,-0.4825 -4.00875,-0.9537 -2.0975,-1.2063 -2.47,-2.6613 -2.47,-5.1025 0,-2.9025 2.26,-4.635 6.04375,-4.635 10e-4,0 0.002,0 0.005,0 1.2625,0 2.2675,-0.033 2.5175,-0.08 0.65,-0.1263 0.7675,-1.025 0.76875,-1.0338 0.0375,-0.4512 0.0413,-7.96 0.025,-15.23 l -15.0725,3.6625 0,22.7925 c 0,0.63 -0.0637,1.2113 -0.18625,1.7288 -0.26,2.4337 -2.99625,4.3275 -6.3525,4.3275"
       inkscape:connector-curvature="0"
       id="path400"
       style="fill:#747474;fill-opacity:1;fill-rule:nonzero;stroke:none" />
  </g>
</svg>
