<?xml version="1.0" encoding="utf-8" standalone="no"?>
<!DOCTYPE svg PUBLIC "-//W3C//DTD SVG 1.1//EN" "http://www.w3.org/Graphics/SVG/1.1/DTD/svg11.dtd">
<svg xmlns="http://www.w3.org/2000/svg" xmlns:xl="http://www.w3.org/1999/xlink" version="1.1" viewBox="265 328 46 46" width="46pt" height="46pt" xmlns:dc="http://purl.org/dc/elements/1.1/"><metadata> Produced by OmniGraffle 6.0 <dc:date>2013-10-16 03:32Z</dc:date></metadata><defs/><g stroke="none" stroke-opacity="1" stroke-dasharray="none" fill="none" fill-opacity="1"><title>Canvas 1</title><g><title>Layer 1</title><path d="M 289 340 L 287 340 L 287 350 L 277 350 L 277 352 L 287 352 L 287 362 L 289 362 L 289 352 L 299 352 L 299 350 L 289 350 Z M 288 371 C 276.954 371 268 362.046 268 351 C 268 339.954 276.954 331 288 331 C 299.046 331 308 339.954 308 351 C 308 362.046 299.046 371 288 371 M 288 329 C 275.85 329 266 338.85 266 351 C 266 363.15 275.85 373 288 373 C 300.15 373 310 363.15 310 351 C 310 338.85 300.15 329 288 329" fill="#747474"/></g></g></svg>
