<?xml version="1.0" encoding="utf-8" standalone="no"?>
<!DOCTYPE svg PUBLIC "-//W3C//DTD SVG 1.1//EN" "http://www.w3.org/Graphics/SVG/1.1/DTD/svg11.dtd">
<svg xmlns="http://www.w3.org/2000/svg" xmlns:xl="http://www.w3.org/1999/xlink" version="1.1" viewBox="250 305 51 32" width="51pt" height="32pt" xmlns:dc="http://purl.org/dc/elements/1.1/"><metadata> Produced by OmniGraffle 6.0 <dc:date>2013-10-16 03:22Z</dc:date></metadata><defs/><g stroke="none" stroke-opacity="1" stroke-dasharray="none" fill="none" fill-opacity="1"><title>Canvas 1</title><g><title>Layer 1</title><path d="M 281 306 L 255 306 C 252.791 306 251 307.791 251 310 L 251 332 C 251 334.209 252.791 336 255 336 L 281 336 C 283.209 336 285 334.209 285 332 L 285 310 C 285 307.791 283.209 306 281 306 M 281 308 C 282.103 308 283 308.897 283 310 L 283 332 C 283 333.103 282.103 334 281 334 L 255 334 C 253.897 334 253 333.103 253 332 L 253 310 C 253 308.897 253.897 308 255 308 L 281 308" fill="#747474"/><path d="M 300 310 L 298 310 L 287 317 L 287 325 L 298 332 L 300 332 Z M 298 312.371 L 298 329.629 L 289 323.902 L 289 318.098 Z" fill="#747474"/></g></g></svg>
