<?xml version="1.0" encoding="utf-8" standalone="no"?>
<!DOCTYPE svg PUBLIC "-//W3C//DTD SVG 1.1//EN" "http://www.w3.org/Graphics/SVG/1.1/DTD/svg11.dtd">
<svg xmlns="http://www.w3.org/2000/svg" xmlns:xl="http://www.w3.org/1999/xlink" version="1.1" viewBox="267 331 42 40" width="42pt" height="40pt" xmlns:dc="http://purl.org/dc/elements/1.1/"><metadata> Produced by OmniGraffle 6.0 <dc:date>2013-10-16 03:34Z</dc:date></metadata><defs/><g stroke="none" stroke-opacity="1" stroke-dasharray="none" fill="none" fill-opacity="1"><title>Canvas 1</title><g><title>Layer 1</title><path d="M 282.5 349 L 293.5 349 C 294.328 349 295 349.672 295 350.5 C 295 351.328 294.328 352 293.5 352 L 282.5 352 C 281.672 352 281 351.328 281 350.5 C 281 349.672 281.672 349 282.5 349 M 282.5 354 L 293.5 354 C 295.434 354 297 352.434 297 350.5 C 297 348.567 295.434 347 293.5 347 L 282.5 347 C 280.566 347 279 348.567 279 350.5 C 279 352.434 280.566 354 282.5 354 M 306 341 L 270 341 L 270 334 L 306 334 Z M 304 368 L 272 368 L 272 343 L 304 343 Z M 307 332 L 269 332 C 268.447 332 268 332.447 268 333 L 268 342 C 268 342.553 268.447 343 269 343 L 270 343 L 270 369 C 270 369.553 270.447 370 271 370 L 305 370 C 305.553 370 306 369.553 306 369 L 306 343 L 307 343 C 307.553 343 308 342.553 308 342 L 308 333 C 308 332.447 307.553 332 307 332" fill="#747474"/></g></g></svg>
